# xmcd CD database file
#
# Track frame offsets:
#	150
#	20725
#	37752
#	58335
#
# Disc length: 1001 seconds
#
# Revision: 0
# Processed by: cddbd v1.5PL3 Copyright (c) Steve Scherf et al.
# Submitted via: CDex 1.50beta8
#
DISCID=2e03e704
DTITLE=DEEN - 君さえいれば
DYEAR=1998
DGENRE=
TTITLE0=君さえいれば
TTITLE1=TAKE OFF 〜まだ 始まったばかり〜
TTITLE2=君さえいれば (Original Karaoke)
TTITLE3=TAKE OFF 〜まだ 始まったばかり〜 (Origina Karaoke)
EXTD=YEAR: 1998
EXTT0=
EXTT1=
EXTT2=
EXTT3=
PLAYORDER=
